<?xml version="1.0" standalone="no"?>
<!DOCTYPE svg PUBLIC "-//W3C//DTD SVG 20010904//EN"
 "http://www.w3.org/TR/2001/REC-SVG-20010904/DTD/svg10.dtd">
<svg version="1.0" xmlns="http://www.w3.org/2000/svg"
 width="1024.000000pt" height="1536.000000pt" viewBox="0 0 1024.000000 1536.000000"
 preserveAspectRatio="xMidYMid meet">

<g transform="translate(0.000000,1536.000000) scale(0.100000,-0.100000)"
fill="#000000" stroke="none">
<path d="M5255 13249 c-106 -42 -199 -44 -300 -9 -58 21 -89 25 -180 25 -107
0 -112 -1 -185 -37 -41 -20 -109 -65 -150 -99 -121 -100 -151 -108 -390 -112
-131 -2 -138 -3 -201 -34 -65 -32 -92 -57 -216 -201 -62 -71 -112 -97 -219
-116 -200 -36 -305 -125 -394 -337 -52 -122 -110 -187 -220 -247 -199 -107
-274 -234 -290 -489 -10 -160 -26 -201 -108 -287 -127 -133 -172 -233 -180
-396 -4 -91 -1 -117 22 -200 33 -120 33 -171 0 -257 -58 -152 -66 -191 -61
-308 5 -129 22 -180 97 -300 75 -118 77 -133 70 -375 -6 -180 42 -289 195
-450 105 -109 114 -124 144 -235 52 -188 163 -313 331 -370 129 -44 146 -59
215 -185 54 -98 107 -157 174 -194 59 -32 158 -56 232 -56 86 0 149 -24 241
-92 45 -33 111 -75 147 -91 90 -43 198 -44 322 -4 95 30 129 32 173 14 l29
-12 -64 -80 c-80 -101 -268 -289 -577 -579 -134 -126 -242 -230 -240 -231 2
-2 26 1 54 5 135 22 309 32 524 32 263 -1 437 -16 695 -62 324 -57 521 -89
624 -101 125 -14 471 -7 583 12 l77 12 -58 63 c-142 151 -164 321 -74 564 41
111 234 497 293 587 53 80 93 104 178 110 68 5 97 0 452 -82 145 -34 239 -32
315 7 100 52 142 126 152 266 l6 87 54 53 c29 30 61 68 70 85 23 45 21 127 -5
171 l-21 35 29 29 c35 35 55 105 51 177 -1 11 -19 42 -41 69 -22 26 -40 56
-40 66 0 10 25 42 56 72 66 63 94 112 94 168 0 56 -9 70 -119 185 -127 133
-177 201 -203 271 -18 53 -20 70 -12 174 15 217 11 376 -14 463 -12 42 -22 84
-22 93 0 9 20 38 44 66 26 28 54 73 66 106 30 84 29 84 121 128 152 74 188
147 158 319 l-11 62 41 66 c50 82 65 140 58 217 -5 58 -9 68 -95 220 -31 54
-31 57 -26 150 5 83 3 102 -16 154 -28 74 -85 136 -170 186 -96 56 -116 80
-146 177 -47 145 -132 216 -298 248 -96 18 -135 43 -183 115 -91 139 -156 179
-314 191 -124 9 -161 24 -245 100 -108 97 -218 131 -362 110 -96 -14 -164 -3
-247 40 -204 107 -191 102 -305 106 -98 3 -110 1 -185 -28z m620 -4143 c52
-22 132 -102 170 -170 111 -198 80 -432 -76 -588 -180 -181 -474 -181 -658 0
-190 187 -186 506 11 705 61 62 89 70 127 40 l22 -18 -56 -54 c-98 -96 -139
-222 -118 -360 14 -88 45 -153 99 -208 52 -51 101 -77 178 -93 245 -50 449
182 396 452 -22 114 -98 226 -184 270 -30 15 -36 22 -25 29 21 13 75 11 114
-5z"/>
<path d="M7211 6480 c-293 -62 -500 -267 -565 -559 -20 -86 -22 -252 -6 -344
36 -199 167 -386 342 -490 213 -126 537 -124 756 5 90 53 201 170 249 264 69
131 87 214 88 384 0 125 -3 156 -23 220 -79 253 -268 441 -507 505 -72 19
-272 28 -334 15z m255 -146 c99 -47 170 -152 215 -319 20 -70 22 -106 23 -290
0 -184 -2 -221 -22 -297 -49 -199 -138 -291 -292 -305 -111 -10 -219 42 -279
136 -76 117 -106 269 -105 521 1 263 33 393 122 491 88 99 216 122 338 63z"/>
<path d="M4406 6462 c-281 -2 -372 -5 -378 -15 -16 -25 -7 -47 32 -74 22 -15
49 -46 60 -69 20 -39 20 -61 21 -570 1 -348 -2 -538 -9 -555 -11 -28 -52 -64
-82 -74 -24 -8 -35 -42 -20 -60 9 -11 64 -13 303 -12 l292 2 0 25 c0 20 -10
29 -47 47 -79 38 -82 50 -86 327 l-4 239 114 -5 c147 -7 194 -26 234 -94 41
-74 67 -89 98 -59 12 12 15 51 16 209 1 211 -6 249 -42 244 -16 -2 -33 -22
-58 -67 -19 -35 -47 -73 -62 -84 -32 -24 -100 -35 -215 -36 l-83 -1 0 258 c0
313 -8 295 133 301 165 6 272 -42 399 -177 37 -40 73 -72 80 -72 22 0 58 30
58 48 0 18 -84 309 -91 316 -7 8 -287 11 -663 8z"/>
<path d="M2907 6453 c-16 -15 -5 -48 28 -84 26 -29 35 -48 35 -73 0 -35 -343
-993 -385 -1075 -24 -47 -59 -85 -108 -116 -21 -13 -27 -25 -25 -44 l3 -26
201 -3 c173 -2 203 0 208 13 9 23 -3 42 -34 55 -15 6 -38 22 -50 35 -20 22
-22 32 -17 92 2 37 16 102 29 143 l24 75 264 0 265 0 22 -60 c12 -33 29 -88
39 -123 22 -81 10 -127 -41 -160 -27 -17 -35 -29 -33 -45 l3 -22 285 0 c281 0
285 0 288 21 2 15 -11 32 -43 58 -25 21 -56 59 -69 84 -21 42 -252 642 -418
1087 -33 88 -65 163 -71 167 -15 10 -391 10 -400 1z m278 -578 c54 -143 100
-268 103 -277 4 -17 -11 -18 -207 -18 -153 0 -211 3 -211 12 0 23 205 557 211
550 4 -4 51 -124 104 -267z"/>
<path d="M5287 6453 c-19 -19 -4 -53 42 -91 77 -65 76 -58 76 -647 0 -496 -1
-511 -21 -545 -11 -19 -39 -46 -63 -59 -35 -19 -42 -27 -39 -50 l3 -26 290 0
290 0 0 24 c0 19 -10 30 -46 49 -71 36 -73 46 -77 300 l-3 222 45 0 45 0 178
-297 179 -298 206 -3 c195 -2 207 -1 212 16 9 29 -1 46 -40 67 -19 10 -52 37
-72 59 -34 37 -314 464 -328 499 -3 10 16 24 68 49 134 65 207 153 227 276 12
73 0 166 -29 221 -19 38 -83 103 -137 140 -46 32 -157 71 -243 87 -79 14 -750
21 -763 7z m651 -128 c67 -20 114 -62 143 -127 32 -73 34 -221 3 -288 -45 -97
-129 -151 -245 -158 -70 -4 -78 -3 -88 16 -8 15 -10 105 -9 284 l3 263 35 12
c48 16 97 16 158 -2z"/>
<path d="M2793 4712 c-76 -2 -94 -6 -102 -20 -12 -25 -1 -47 38 -74 19 -13 44
-41 55 -63 21 -39 21 -51 19 -527 -2 -548 1 -524 -78 -578 -41 -28 -58 -61
-37 -73 8 -6 622 -12 873 -9 122 1 180 6 192 15 11 8 23 49 37 127 34 190 35
201 19 211 -29 18 -49 7 -92 -53 -114 -158 -218 -206 -432 -196 -88 4 -98 6
-123 31 l-27 27 -3 230 -3 230 113 0 c146 0 188 -18 233 -100 31 -56 55 -71
80 -50 12 10 15 51 15 221 0 135 -4 210 -11 214 -21 13 -55 -5 -71 -37 -50
-105 -110 -137 -258 -138 l-105 0 5 247 5 248 59 8 c86 12 207 -6 282 -43 43
-21 85 -55 143 -115 67 -70 87 -86 108 -83 53 6 55 29 16 188 -19 80 -39 149
-44 154 -7 8 -699 15 -906 8z"/>
<path d="M1417 4704 c-19 -20 -5 -55 32 -80 78 -51 76 -36 76 -599 0 -562 3
-541 -75 -590 -41 -26 -49 -42 -28 -63 20 -20 736 -17 835 4 148 30 248 96
301 199 23 44 26 62 26 145 0 83 -3 101 -26 145 -44 86 -138 161 -240 194 -21
7 -38 16 -38 19 0 4 23 21 51 37 115 68 178 180 165 292 -17 143 -93 225 -256
279 -48 15 -103 18 -435 22 -209 2 -384 0 -388 -4z m671 -131 c19 -9 44 -34
60 -62 25 -42 27 -55 27 -152 0 -100 -2 -108 -30 -155 -45 -71 -96 -97 -207
-102 l-88 -4 0 235 c0 178 3 238 13 244 37 23 172 21 225 -4z m19 -605 c95
-35 153 -132 153 -255 0 -170 -85 -250 -262 -246 -130 3 -139 21 -146 310 l-5
211 24 5 c45 9 184 -6 236 -25z"/>
<path d="M4347 4703 c-16 -16 -4 -52 28 -83 47 -46 46 -69 -16 -237 -28 -76
-91 -253 -140 -393 -154 -436 -173 -478 -255 -546 -85 -72 -49 -87 191 -82
l140 3 3 27 c2 19 -2 28 -16 32 -11 4 -32 18 -46 31 -35 32 -35 102 0 213 l26
82 248 0 c186 0 250 -3 257 -12 21 -28 65 -156 70 -206 6 -52 5 -53 -36 -91
-27 -25 -41 -46 -39 -58 3 -17 20 -18 277 -18 255 0 275 1 285 18 9 15 7 22
-12 35 -59 42 -95 78 -117 116 -13 22 -69 160 -124 306 -196 523 -313 825
-327 848 -14 22 -18 22 -203 22 -103 0 -191 -3 -194 -7z m276 -564 c54 -143
97 -262 95 -264 -7 -7 -399 -11 -403 -5 -4 6 98 284 184 503 6 15 14 27 18 27
5 0 52 -118 106 -261z"/>
<path d="M5257 4703 c-18 -17 -5 -52 28 -74 19 -13 44 -42 55 -65 19 -38 20
-62 20 -420 0 -412 6 -467 55 -564 96 -189 365 -288 641 -235 106 20 193 63
263 130 129 122 141 177 141 635 0 190 4 372 10 405 8 54 14 64 55 101 35 31
46 47 43 65 l-3 24 -185 0 -185 0 -3 -25 c-2 -20 6 -32 42 -57 84 -59 81 -43
81 -513 0 -411 0 -415 -23 -464 -36 -79 -67 -113 -137 -147 -57 -28 -74 -31
-152 -32 -71 -1 -98 4 -138 22 -98 44 -156 126 -175 250 -7 44 -10 206 -8 438
3 410 3 411 73 451 36 22 45 48 23 70 -13 13 -509 18 -521 5z"/>
<path d="M6717 4698 c-19 -15 -81 -319 -72 -355 6 -26 50 -41 74 -26 9 5 34
43 56 84 58 109 79 134 137 163 38 19 68 26 110 26 l58 0 0 -525 c0 -591 4
-561 -76 -615 -37 -26 -45 -36 -42 -58 l3 -27 280 0 280 0 3 27 c3 22 -4 32
-37 52 -81 51 -76 14 -76 616 l0 535 55 -3 c30 -1 69 -7 87 -13 49 -16 104
-77 152 -167 49 -95 75 -115 116 -88 32 21 32 40 1 220 -18 104 -28 143 -42
153 -25 19 -1042 19 -1067 1z"/>
<path d="M7932 4698 c-21 -21 -13 -36 33 -68 60 -42 77 -68 279 -440 l176
-325 0 -158 c0 -179 -8 -209 -64 -252 -47 -36 -61 -61 -45 -81 10 -12 54 -14
273 -12 l261 3 3 26 c2 21 -4 31 -33 49 -70 43 -75 62 -75 267 l0 182 108 198
c60 109 138 252 173 318 71 133 111 184 176 222 37 21 44 30 41 52 l-3 26
-195 0 -195 0 -3 -27 c-3 -23 3 -30 37 -47 46 -24 60 -63 42 -126 -11 -43
-231 -465 -242 -465 -8 0 -244 431 -261 477 -17 44 -3 80 43 110 32 21 39 32
37 52 l-3 26 -275 3 c-206 2 -279 -1 -288 -10z"/>
<path d="M3430 2931 c-92 -28 -142 -85 -148 -170 -5 -71 21 -129 71 -160 19
-11 78 -32 132 -46 117 -31 133 -38 141 -70 15 -59 -30 -95 -118 -95 -59 0
-109 24 -129 62 -6 13 -13 24 -14 26 -1 1 -28 -7 -59 -18 -71 -27 -72 -45 -7
-110 56 -56 120 -80 215 -80 136 0 224 57 247 159 14 61 -3 111 -51 155 -37
33 -84 52 -218 86 -54 14 -82 41 -82 79 0 45 40 71 107 71 49 0 59 -4 89 -34
l35 -35 59 26 59 25 -14 29 c-19 36 -70 75 -124 94 -45 16 -148 19 -191 6z"/>
<path d="M5053 2922 c-74 -27 -131 -69 -169 -127 -43 -65 -58 -128 -52 -218 9
-130 70 -222 180 -272 206 -93 449 9 499 208 17 68 7 184 -20 240 -30 61 -90
120 -157 153 -74 36 -204 43 -281 16z m189 -112 c85 -24 138 -102 138 -205 0
-133 -82 -215 -213 -215 -74 0 -133 32 -171 94 -25 40 -30 58 -30 114 -1 158
125 254 276 212z"/>
<path d="M4050 2870 l0 -60 100 0 100 0 0 -265 0 -265 65 0 65 0 0 265 0 265
95 0 95 0 0 60 0 60 -260 0 -260 0 0 -60z"/>
<path d="M5820 2606 l0 -326 65 0 65 0 0 110 0 110 43 0 42 -1 65 -109 65
-109 73 -1 c39 0 72 3 72 6 0 3 -31 54 -70 114 -38 60 -70 111 -70 114 0 3 6
6 13 6 25 0 95 70 107 106 7 20 10 66 8 104 -5 86 -36 137 -105 171 -43 21
-64 24 -210 27 l-163 4 0 -326z m326 171 c33 -39 33 -99 -1 -132 -22 -23 -32
-25 -110 -25 l-85 0 0 96 0 96 86 -3 c79 -4 87 -6 110 -32z"/>
<path d="M6620 2605 l0 -325 210 0 210 0 0 61 0 61 -72 -3 c-40 -1 -106 -1
-145 0 l-73 1 0 75 0 75 125 0 125 0 0 55 0 55 -125 0 -125 0 0 75 0 75 145 0
146 0 -3 58 -3 57 -207 3 -208 2 0 -325z"/>
</g>
</svg>
